<?xml version="1.0" encoding="UTF-8" standalone="no"?>
<!-- Created with Inkscape (http://www.inkscape.org/) -->

<svg
   width="200"
   height="51"
   viewBox="0 0 199.99999 50.999999"
   version="1.1"
   id="svg1"
   xml:space="preserve"
   inkscape:version="1.3.2 (091e20e, 2023-11-25)"
   sodipodi:docname="ds.svg"
   xmlns:inkscape="http://www.inkscape.org/namespaces/inkscape"
   xmlns:sodipodi="http://sodipodi.sourceforge.net/DTD/sodipodi-0.dtd"
   xmlns="http://www.w3.org/2000/svg"
   xmlns:svg="http://www.w3.org/2000/svg"><sodipodi:namedview
     id="namedview1"
     pagecolor="#ffffff"
     bordercolor="#000000"
     borderopacity="0.25"
     inkscape:showpageshadow="2"
     inkscape:pageopacity="0.0"
     inkscape:pagecheckerboard="0"
     inkscape:deskcolor="#d1d1d1"
     inkscape:document-units="px"
     inkscape:zoom="3.8104265"
     inkscape:cx="105.5"
     inkscape:cy="90.541045"
     inkscape:window-width="1575"
     inkscape:window-height="1016"
     inkscape:window-x="0"
     inkscape:window-y="27"
     inkscape:window-maximized="0"
     inkscape:current-layer="layer1"
     inkscape:clip-to-page="true" /><defs
     id="defs1" /><g
     inkscape:label="Layer 1"
     inkscape:groupmode="layer"
     id="layer1"><path
       style="font-variation-settings:'wght' 700;fill:#00dcfa;fill-opacity:1;stroke-width:0.0536546"
       d="M 23.179223,46.664333 22.149666,45.563974 V 36.082475 26.601009 L 13.1595,23.172021 4.1693716,19.743067 3.4810667,18.446972 2.7927734,17.150881 3.2433465,16.155248 C 3.663509,15.226837 3.7843621,15.126121 5.0327824,14.663793 l 1.3388448,-0.495798 9.3265618,3.568808 c 5.129601,1.962819 9.446199,3.568803 9.592436,3.568803 0.146042,0 4.473234,-1.606892 9.615318,-3.570864 l 9.349436,-3.570912 1.333235,0.50846 c 1.219934,0.465222 1.370209,0.589194 1.768688,1.459332 l 0.43547,0.950972 -0.671536,1.330237 -0.67161,1.330239 -8.99184,3.428127 -8.991795,3.428126 v 9.495984 9.496053 l -1.042468,1.086629 c -1.002569,1.045116 -1.084123,1.086663 -2.128667,1.086663 -1.049552,0 -1.120853,-0.03629 -2.115746,-1.100314 z"
       id="path4-2" /><path
       style="font-variation-settings:'wght' 700;fill:#00dcfa;fill-opacity:1;stroke-width:0.0536546"
       d="M 23.333961,9.948194 V 4.0076077 l 0.641534,-0.6159985 c 0.870622,-0.8359448 1.794061,-0.8359448 2.664758,0 l 0.641496,0.6159985 v 5.9405863 5.940628 h -1.973893 -1.973895 z"
       id="path5-2" /><path
       style="font-variation-settings:'wght' 700;fill:#00dcfa;fill-opacity:1;stroke-width:0.0536546"
       d="M 6.7194563,38.208494 C 5.8983246,38.00353 5.3644313,37.140062 5.5027205,36.240516 c 0.06338,-0.412491 0.2597295,-0.87599 0.4363207,-1.029988 0.4971511,-0.433685 9.4176898,-6.613051 9.5466188,-6.613051 0.163615,0 2.124071,2.662465 2.124071,2.884267 0,0.28543 -9.6565048,6.910942 -10.0316302,6.883015 -0.1820984,-0.01662 -0.5685085,-0.08414 -0.858625,-0.156322 z"
       id="path6-8" /><path
       style="font-variation-settings:'wght' 700;fill:#00dcfa;fill-opacity:1;stroke-width:0.0536546"
       d="m 37.947711,35.151881 c -2.54733,-1.787621 -4.759555,-3.325851 -4.916126,-3.418314 -0.225147,-0.13323 -0.0615,-0.476505 0.782521,-1.645161 0.586841,-0.812364 1.127667,-1.480161 1.201746,-1.48396 0.07396,-0.0038 2.361359,1.541367 5.082777,3.433698 l 4.948001,3.440667 -0.0037,0.882382 c -0.008,1.17781 -0.484271,1.749633 -1.590557,1.912629 -0.861534,0.126608 -0.916615,0.09569 -5.501745,-3.121941 z"
       id="path7-9" /><g
       id="g1"
       transform="matrix(0.28702374,0,0,0.35257922,62.76888,106.5152)"
       style="stroke-width:3.14349"><path
         style="fill:#00dcfa;fill-opacity:1;stroke-width:3.95572"
         d="M 108.01759,-199.6787 C 102.05576,-201.79379 94,-209.17836 94,-212.52838 c 0,-2.80341 5.206315,-7.24225 9.26742,-7.90127 3.22124,-0.52274 3.98982,-0.1624 7.67707,3.59933 3.35202,3.41974 4.66654,4.1235 7.22563,3.86843 3.44702,-0.34357 5.48655,-2.65815 4.53268,-5.14391 -0.33853,-0.88218 -4.61281,-3.61154 -9.49841,-6.06523 C 98.729156,-231.44093 95,-235.6209 95,-244.57614 c 0,-8.4764 5.46668,-14.3817 15.08558,-16.296 7.34286,-1.46133 15.28138,0.15805 21.65446,4.41729 6.11981,4.08998 6.4523,6.35562 1.70401,11.61142 -4.45249,4.92837 -7.12082,5.17046 -11.79127,1.06975 -3.45392,-3.03258 -6.03847,-3.67555 -8.50117,-2.11486 -3.17202,2.01019 -0.53699,4.67237 9.71794,9.81807 15.33259,7.69354 17.64716,10.47657 16.93231,20.35935 -0.74444,10.29172 -7.56208,16.13017 -20.30186,17.38598 -4.557,0.4492 -7.31852,0.12367 -11.48241,-1.35356 z m 320.69991,0.86766 c -2.08037,-0.51969 -5.03919,-1.59475 -6.57515,-2.38903 C 418.84196,-202.90677 412,-210.22879 412,-212.05406 c 0,-3.56245 6.52289,-8.71962 11.02876,-8.71962 1.17044,0 3.91018,1.8 6.0883,4 3.838,3.87655 6.63783,4.79876 10.30115,3.39301 2.04051,-0.78302 2.04151,-4.76659 0.002,-6.45955 -0.8691,-0.72129 -5.66503,-3.36389 -10.65763,-5.87245 -10.9851,-5.51952 -14.82707,-9.68077 -15.51116,-16.80019 -0.95201,-9.9078 4.82162,-16.60244 15.94996,-18.49432 7.65744,-1.3018 15.09547,0.49245 21.6128,5.21358 5.23477,3.79204 5.4323,6.55626 0.81812,11.44872 -4.12614,4.37498 -6.79838,4.51024 -11.2847,0.5712 -3.65075,-3.2054 -7.38619,-3.8629 -9.24203,-1.62675 -2.14792,2.58809 0.21885,4.89314 9.39911,9.15399 15.03179,6.97673 19.43141,12.46584 17.61156,21.97276 -0.93203,4.86898 -2.19996,7.31537 -5.28768,10.20227 -5.05315,4.72449 -16.37103,7.19378 -24.11068,5.26037 z M -25,-200.00079 l -2.5,-1.33103 -0.265344,-28.08575 c -0.237973,-25.18869 -0.09352,-28.22864 1.400412,-29.47093 2.224941,-1.85018 21.363805,-2.44241 28.8313312,-0.89216 12.7551838,2.64797 18.7615508,16.091 11.3814798,25.47324 l -2.099558,2.66915 2.131551,1.493 c 6.523707,4.56938 6.956169,17.60431 0.803516,24.21891 -4.8359695,5.19905 -9.2035029,6.46701 -23.683388,6.87564 -9.937694,0.28044 -14.159686,0.0298 -16,-0.95007 z m 25.42857143,-16.34432 c 3.01545687,-3.01546 0.84254267,-8.42857 -3.38336863,-8.42857 -3.85765,0 -4.1389821,-9.08182 -0.3889905,-12.55719 2.3232331,-2.1531 2.51395862,-2.77391 1.5214388,-4.95226 -0.8965625,-1.96774 -1.8739918,-2.49055 -4.6562123,-2.49055 H -10 v 15 15 h 4.4285714 c 2.6926407,0 5.04454688,-0.61598 6.00000003,-1.57143 z M 37,-200.06749 l -2.5,-1.26433 -0.265344,-28.08575 c -0.238114,-25.20358 -0.09418,-28.2279 1.402572,-29.47093 1.272016,-1.05639 5.568868,-1.38518 18.102557,-1.38518 16.065021,0 16.477661,0.0531 18.347429,2.36078 2.442211,3.01421 2.442943,7.26272 0.0018,10.27843 -1.707823,2.10977 -2.877413,2.39795 -11,2.71029 L 52,-244.57469 v 3.78528 3.78528 l 5.75,0.7116 c 7.115085,0.88053 8.25,1.7773 8.25,6.51885 0,4.76001 -1.284953,5.78096 -8.31586,6.6073 L 52,-222.49832 v 3.76282 3.76282 l 9.088985,0.3495 c 8.122587,0.31234 9.292177,0.60051 11,2.71028 1.909381,2.35877 2.533174,7.66158 1.145702,9.73951 -1.830231,2.74103 -5.605987,3.39919 -19.418946,3.38497 -9.526998,-0.01 -15.152013,-0.43767 -16.815741,-1.27907 z m 129,0.0572 -2.5,-1.32114 -0.26843,-23.22112 -0.26843,-23.22111 h -6.04731 c -8.36653,0 -9.91583,-1.0156 -9.91583,-6.5 0,-3.35599 0.46882,-4.68054 1.93426,-5.46482 2.58669,-1.38436 43.54479,-1.38436 46.13148,0 1.46544,0.78428 1.93426,2.10883 1.93426,5.46482 0,5.48671 -1.54866,6.5 -9.93426,6.5 H 181 v 22.30887 c 0,17.00223 -0.31687,22.74222 -1.33213,24.13066 -1.71828,2.34989 -10.17609,3.16909 -13.66787,1.32384 z m 94.98921,-0.57103 -2.48921,-2.01564 v -26.93465 c 0,-21.14662 0.29021,-27.28434 1.35048,-28.56189 1.91012,-2.30156 7.666,-3.1416 12.20595,-1.7814 4.22307,1.26526 4.67777,2.3688 5.1922,12.60124 l 0.25137,5 6.30999,-8.16603 c 6.37195,-8.24622 7.6988,-9.33397 11.38564,-9.33397 2.94791,0 9.68283,4.04169 10.37641,6.22698 0.75704,2.38522 -0.58493,4.37041 -9.94063,14.70525 -6.63281,7.32698 -7.46938,8.65891 -6.38238,10.16158 0.68803,0.95114 4.73847,5.83442 9.00097,10.85175 4.2625,5.01732 7.75,9.8036 7.75,10.63617 0,3.77344 -8.41103,8.25609 -13.61196,7.25448 -0.99643,-0.19189 -4.75387,-4.16688 -8.34986,-8.83331 l -6.53818,-8.48441 -0.5,7.6945 c -0.275,4.23197 -1.04666,8.23947 -1.71481,8.90556 -0.66814,0.66609 -3.598,1.4087 -6.51079,1.65025 -4.25261,0.35266 -5.78638,0.0421 -7.78519,-1.57646 z m 63.34759,0.62589 c -1.18976,-0.57552 -2.42112,-2.00756 -2.73635,-3.18232 -0.31523,-1.17475 -0.57929,-13.44856 -0.5868,-27.27513 -0.0126,-23.27359 0.12822,-25.31441 1.898,-27.5 1.59365,-1.96808 2.83529,-2.36078 7.46428,-2.36078 9.38695,0 9.12407,-0.88233 9.12407,30.62407 v 27.05263 l -2.36078,1.91165 c -2.60748,2.11141 -9.17268,2.4857 -12.80242,0.72988 z m 25.89866,0.21267 c -3.92428,-1.69343 -4.34592,-5.0065 -4.03245,-31.68563 0.2669,-22.71596 0.47833,-25.4581 2.08655,-27.0613 1.53143,-1.52664 3.62301,-1.78143 14.5,-1.76634 10.73351,0.0149 13.41035,0.34077 17.21044,2.09517 5.71537,2.63862 10.68196,7.63693 13.30226,13.3872 2.82608,6.20184 3.46295,18.85596 1.32,26.22745 -2.0054,6.89831 -8.8167,14.81909 -14.86452,17.28576 -4.94729,2.01781 -25.8707,3.09344 -29.52228,1.51769 z m 23.50317,-16.56038 c 5.98503,-4.19208 5.55747,-24.10095 -0.58823,-27.39003 -1.1104,-0.59427 -3.3985,-1.08049 -5.08466,-1.08049 H 365 v 15 15 h 3.27749 c 1.80263,0 4.26014,-0.68827 5.46114,-1.52948 z M 218,-215.43963 c -3.87024,-0.81381 -5,-2.25653 -5,-6.38507 0,-6.17253 1.55497,-6.94898 13.91644,-6.94898 12.03615,0 14.08356,0.96495 14.08356,6.63761 0,5.47051 -1.60413,6.42303 -11.52333,6.8425 -4.93717,0.20879 -10.10167,0.14306 -11.47667,-0.14606 z"
         id="path1" /></g></g></svg>
