<?xml version="1.0" encoding="UTF-8" standalone="no"?>
<!-- Created with Inkscape (http://www.inkscape.org/) -->

<svg
   width="230"
   height="51"
   viewBox="0 0 60.85416 13.493749"
   version="1.1"
   id="svg1"
   xml:space="preserve"
   inkscape:version="1.3.2 (091e20e, 2023-11-25)"
   sodipodi:docname="kk.svg"
   xmlns:inkscape="http://www.inkscape.org/namespaces/inkscape"
   xmlns:sodipodi="http://sodipodi.sourceforge.net/DTD/sodipodi-0.dtd"
   xmlns="http://www.w3.org/2000/svg"
   xmlns:svg="http://www.w3.org/2000/svg"><sodipodi:namedview
     id="namedview1"
     pagecolor="#ffffff"
     bordercolor="#000000"
     borderopacity="0.25"
     inkscape:showpageshadow="2"
     inkscape:pageopacity="0.0"
     inkscape:pagecheckerboard="0"
     inkscape:deskcolor="#d1d1d1"
     inkscape:document-units="px"
     inkscape:zoom="3.2152452"
     inkscape:cx="90.661826"
     inkscape:cy="103.25807"
     inkscape:window-width="1920"
     inkscape:window-height="1016"
     inkscape:window-x="0"
     inkscape:window-y="27"
     inkscape:window-maximized="1"
     inkscape:current-layer="layer1"
     inkscape:clip-to-page="true" /><defs
     id="defs1" /><g
     inkscape:label="Layer 1"
     inkscape:groupmode="layer"
     id="layer1"><path
       style="font-variation-settings:'wght' 700;fill:#00dcfa;fill-opacity:1;stroke-width:0.0536547"
       d="M 6.1876651,12.408874 5.9152612,12.117737 V 9.6090913 7.1004533 L 3.536613,6.1931999 1.1579745,5.285956 0.97586119,4.9430313 0.79374999,4.6001074 0.91296419,4.3366793 C 1.0241318,4.0910371 1.0561084,4.0643893 1.3864185,3.9420648 L 1.7406554,3.8108854 4.2083078,4.7551315 c 1.3572069,0.5193299 2.4993073,0.944246 2.5379995,0.944246 0.03864,0 1.1835429,-0.4251569 2.544053,-0.9447905 l 2.4737047,-0.9448038 0.352752,0.1345302 c 0.322774,0.1230893 0.362534,0.1558904 0.467965,0.3861143 L 12.7,4.5820387 12.522323,4.9339984 12.344626,5.285957 9.9655354,6.1929823 7.5864561,7.1000069 V 9.6124863 12.124983 L 7.3106357,12.412487 C 7.0453732,12.689007 7.0237945,12.7 6.747426,12.7 6.4697317,12.7 6.4508668,12.6904 6.1876347,12.408875 Z"
       id="path4-2" /><path
       style="font-variation-settings:'wght' 700;fill:#00dcfa;fill-opacity:1;stroke-width:0.0536547"
       d="M 6.2286059,2.6943963 V 1.122616 L 6.398345,0.95963251 c 0.230352,-0.2211767 0.4746786,-0.2211767 0.7050512,0 L 7.273125,1.122616 V 2.6943963 4.2661866 H 6.7508656 6.2286059 Z"
       id="path5-2" /><path
       style="font-variation-settings:'wght' 700;fill:#00dcfa;fill-opacity:1;stroke-width:0.0536547"
       d="M 1.8326851,10.1716 C 1.6154273,10.117369 1.4741679,9.8889113 1.5107571,9.6509063 1.5275288,9.5417673 1.579481,9.4191335 1.6262002,9.3783881 1.7577379,9.2636415 4.1179636,7.6286852 4.1520762,7.6286852 c 0.043293,0 0.5619935,0.7044438 0.5619935,0.7631289 0,0.075518 -2.5549498,1.8285199 -2.6542016,1.8211309 -0.048182,-0.0044 -0.1504184,-0.02226 -0.2271785,-0.04136 z"
       id="path6-8" /><path
       style="font-variation-settings:'wght' 700;fill:#00dcfa;fill-opacity:1;stroke-width:0.0536547"
       d="M 10.095161,9.3628708 C 9.4211796,8.8898961 8.8358623,8.4829064 8.7944355,8.4584418 8.7348692,8.4231885 8.7781701,8.3323672 9.0014784,8.0231595 9.1567455,7.8082218 9.2998399,7.6315339 9.3194398,7.6305292 c 0.019574,-0.00104 0.6247766,0.4078201 1.3448182,0.9084989 l 1.309159,0.9103425 -10e-4,0.2334647 c -0.0021,0.311629 -0.12813,0.4629237 -0.420835,0.5060497 -0.227948,0.0335 -0.242521,0.02532 -1.45567,-0.8260142 z"
       id="path7-9" /><g
       id="g3"
       transform="matrix(0.30848418,0,0,0.36213792,29.031003,-5.7433647)"
       style="fill:#00dcfa;fill-opacity:1;stroke-width:2.99189"><path
         style="fill:#00dcfa;fill-opacity:1;stroke-width:4.47783"
         d="m -10.899381,44.426524 c -1.472653,-0.326547 -2.253891,-0.711694 -3.291414,-1.622651 -1.763664,-1.548518 -2.131358,-2.898084 -1.203998,-4.419103 0.800647,-1.313192 1.212131,-1.331302 2.464509,-0.108466 0.607674,0.593339 1.440034,1.204778 1.84969,1.358752 0.93034,0.34968 3.1029806,0.363134 3.9930572,0.02473 0.7797251,-0.296451 1.1664312,-1.414936 0.6883615,-1.990975 -0.1767614,-0.212984 -1.6847421,-0.812846 -3.3510681,-1.333027 -4.4721486,-1.396079 -5.9116366,-2.876092 -5.9116366,-6.078064 0,-2.471426 0.974657,-4.149711 3.042708,-5.239313 1.499931,-0.790274 4.7902483,-0.786345 6.5433237,0.0078 1.5961396,0.723066 2.5847999,1.711489 2.5847999,2.58418 0,0.713426 -0.8623571,2.627261 -1.3078936,2.902618 -0.1414172,0.0874 -0.933785,-0.202178 -1.7608173,-0.643507 -1.1881284,-0.634021 -1.8326833,-0.802417 -3.071344,-0.802417 -1.8868117,0 -2.5911937,0.324529 -2.5911937,1.193835 0,0.843831 0.710631,1.272335 3.2439326,1.956062 3.9531829,1.066947 5.445371,2.13869 6.0378647,4.336612 0.5535771,2.053556 -0.1840877,5.115945 -1.5242486,6.327863 -1.3221104,1.195595 -4.5333192,1.966658 -6.4346327,1.545059 z m 67.204158,0 c -2.674379,-0.593019 -5.027083,-2.703218 -5.027083,-4.508917 0,-0.899352 1.017692,-2.648431 1.540975,-2.648431 0.259538,0 0.882196,0.430915 1.383685,0.95759 0.501489,0.526675 1.294927,1.121988 1.763196,1.322917 1.040575,0.4465 3.246853,0.475805 4.169579,0.05538 0.778632,-0.354768 1.138583,-1.371471 0.680827,-1.923034 -0.170726,-0.205712 -1.642537,-0.795487 -3.270691,-1.310612 -1.628154,-0.515124 -3.394033,-1.233878 -3.924176,-1.59723 -1.302406,-0.892651 -2.078812,-2.564451 -2.078812,-4.476213 0,-2.512274 0.963496,-4.184089 3.042708,-5.279571 1.499931,-0.790274 4.790249,-0.786345 6.543324,0.0078 1.59614,0.723066 2.5848,1.711489 2.5848,2.58418 0,0.829185 -0.942829,2.751895 -1.443677,2.944089 -0.19879,0.07628 -0.864862,-0.194455 -1.48016,-0.60164 -0.879447,-0.581991 -1.499531,-0.761854 -2.899173,-0.84094 -2.162034,-0.122166 -2.908239,0.202547 -2.908239,1.265528 0,0.850711 0.126754,0.91367 4.60972,2.289686 3.425875,1.051548 4.908706,2.727025 4.913803,5.552191 0.0021,1.167253 -0.62812,3.103266 -1.331974,4.091739 -1.100045,1.54487 -4.591879,2.620321 -6.868632,2.115472 z m -86.507338,-0.340459 c -0.441686,-0.23024 -0.721108,-0.677417 -0.871714,-1.395062 -0.121911,-0.580911 -0.186572,-4.66851 -0.143692,-9.083551 l 0.07796,-8.027348 0.641576,-0.51919 c 0.601946,-0.487121 1.007774,-0.514257 6.570173,-0.439318 5.570154,0.07504 5.952524,0.111866 6.324327,0.609039 0.516771,0.691024 0.376431,3.757821 -0.188312,4.115103 -0.21075,0.13333 -2.556073,0.244242 -5.211828,0.24647 l -4.828645,0.0041 v 1.29865 1.298649 l 3.955964,0.09041 c 2.662983,0.06086 4.061879,0.196473 4.28002,0.414913 0.355567,0.356052 0.470172,2.577501 0.170946,3.31352 -0.167911,0.413017 -0.632022,0.463021 -4.297585,0.463021 h -4.109345 v 1.455208 1.455208 h 5.017774 c 5.754094,0 5.565558,-0.08284 5.565558,2.445578 0,2.487381 0.12717,2.438254 -6.526712,2.521359 -4.299351,0.0537 -5.942635,-0.0145 -6.426469,-0.266714 z M 4.3141589,44.209481 C 3.1776196,43.982288 3.123534,43.610633 3.123534,36.027981 V 28.80251 H 0.66290936 c -1.56104146,0 -2.57669996,-0.116075 -2.77812466,-0.3175 -0.1746249,-0.174625 -0.3174999,-1.003873 -0.3174999,-1.842774 0,-1.237205 0.096656,-1.577003 0.5117725,-1.799167 0.3120716,-0.167015 2.9940401,-0.273892 6.8730663,-0.273892 h 6.3612934 l 0.4368,0.666641 c 0.512462,0.782115 0.383248,2.962909 -0.197351,3.330781 -0.197748,0.125294 -1.460869,0.229631 -2.8069369,0.231859 l -2.4473955,0.0041 v 7.375936 c 0,5.587875 -0.080175,7.437972 -0.3307291,7.631843 C 5.475831,44.19101 4.9076541,44.328169 4.3141589,44.209529 Z M 21.289048,40.84788 c -2.158999,-1.968288 -4.033842,-3.578704 -4.166317,-3.578704 -0.132476,0 -0.240866,1.404937 -0.240866,3.122083 0,2.075509 -0.106431,3.228514 -0.317499,3.439583 -0.527722,0.527721 -2.26721,0.396922 -2.583608,-0.194273 -0.358662,-0.670167 -0.373757,-17.592665 -0.01629,-18.260602 0.376803,-0.704061 1.525042,-0.913146 2.283954,-0.415888 0.605001,0.396412 0.633441,0.546434 0.633441,3.341412 0,1.715359 0.103067,2.889869 0.249057,2.838171 0.136981,-0.04851 2.033525,-1.54671 4.214542,-3.32934 2.181017,-1.78263 4.150115,-3.241145 4.375774,-3.241145 0.532859,0 1.479376,1.863059 1.479376,2.911902 0,0.986072 -0.286798,1.283313 -4.167187,4.318935 -1.637109,1.280708 -2.976562,2.412614 -2.976562,2.515348 0,0.102734 1.212507,1.196322 2.69446,2.430197 3.971256,3.306469 4.449289,3.828515 4.449289,4.858933 0,0.953952 -0.972939,2.626972 -1.597674,2.747285 -0.213642,0.04114 -2.154894,-1.53561 -4.313892,-3.503897 z m 63.520983,3.381968 c -0.658629,-0.171769 -1.253175,-1.454631 -1.253175,-2.704 0,-1.017226 0.120721,-1.168763 2.908666,-3.65116 L 89.374188,35.284801 87.10925,35.12533 c -2.834122,-0.199547 -3.146699,-0.456659 -3.146699,-2.588342 0,-2.43445 -0.05131,-2.411562 5.406528,-2.411562 4.431034,0 4.716834,0.03065 5.193123,0.556945 0.352715,0.389745 0.504028,0.950008 0.504028,1.86625 0,1.288576 -0.02932,1.335252 -1.852083,2.948143 -1.018646,0.901362 -2.387864,2.142383 -3.042708,2.757825 l -1.190625,1.118987 2.811874,0.0061 c 3.159404,0.0069 3.363682,0.110206 3.59261,1.816991 0.217196,1.61932 -0.304816,2.856187 -1.288465,3.052917 -0.920617,0.184123 -8.567415,0.167846 -9.286802,-0.01977 z m -131.37524,-0.399006 c -0.234582,-0.234582 -0.3175,-2.683657 -0.3175,-9.377705 v -9.060204 l 0.588038,-0.411878 c 0.473792,-0.331857 1.411918,-0.410749 4.828645,-0.406067 5.011752,0.0069 5.980303,0.294336 7.19967,2.136884 0.988388,1.493523 1.196558,4.608031 0.404227,6.04778 l -0.503237,0.914435 0.68664,1.32411 c 0.567604,1.094562 0.68408,1.669927 0.671871,3.318898 -0.01966,2.65556 -0.970747,4.499238 -2.816362,5.459511 -0.948417,0.49346 -10.255775,0.540453 -10.741992,0.05424 z m 9.850058,-4.860774 c 0.444988,-0.444988 0.552132,-1.869881 0.184243,-2.450222 -0.127,-0.200341 -0.933753,-0.416864 -1.869285,-0.501695 -1.780182,-0.161422 -2.132517,-0.516135 -2.132517,-2.146911 0,-1.287791 0.665142,-1.89373 2.078753,-1.89373 1.366436,0 1.889996,-0.329824 1.889996,-1.190625 0,-1.045878 -0.472841,-1.190625 -3.889374,-1.190625 h -3.254375 v 4.894791 4.894791 h 3.288393 c 2.63667,0 3.370794,-0.0824 3.704166,-0.415774 z m 66.306324,4.666501 c -0.358663,-0.670167 -0.373757,-17.592665 -0.01629,-18.260602 0.376802,-0.704061 1.525042,-0.913146 2.283953,-0.415888 l 0.633442,0.415047 v 9.069108 c 0,6.700973 -0.08291,9.152014 -0.3175,9.386608 -0.527722,0.527721 -2.267209,0.396922 -2.583607,-0.194273 z m 5.556249,0 c -0.173186,-0.3236 -0.273892,-3.774934 -0.273892,-9.386608 v -8.874835 l 0.650785,-0.426411 c 0.545421,-0.357373 1.327202,-0.411908 4.828646,-0.336829 4.011372,0.08601 4.227605,0.118825 5.426189,0.823394 4.088327,2.403257 5.431124,9.698209 2.749794,14.938688 -0.745232,1.456506 -2.342721,3.088561 -3.420036,3.494038 -0.417006,0.156951 -2.712823,0.280336 -5.216211,0.280336 -4.149936,0 -4.491073,-0.03679 -4.745275,-0.511773 z m 9.438871,-4.770503 c 2.502013,-1.525557 2.698968,-6.474212 0.34261,-8.608348 -0.501321,-0.454042 -1.031188,-0.541703 -3.732321,-0.617471 l -3.148053,-0.0883 v 4.74056 c 0,2.607309 0.07937,4.819936 0.176389,4.91695 0.09701,0.09701 1.376936,0.175944 2.844271,0.1754 2.181505,-8.09e-4 2.822701,-0.09539 3.517104,-0.518787 z m 21.349372,4.617656 c -0.491234,-0.749718 -0.419849,-3.360587 0.106269,-3.886705 0.404392,-0.404392 1.779991,-0.379308 2.287285,0.04171 0.508396,0.421931 0.581577,3.704012 0.09347,4.192117 -0.582858,0.582858 -2.008014,0.383945 -2.487027,-0.34712 z m 7.065346,0.20995 c -1.113128,-0.548318 -2.285322,-2.349331 -2.656978,-4.082302 -0.154509,-0.720449 -0.280925,-2.962417 -0.280925,-4.982152 0,-4.101385 0.150621,-4.503792 1.685774,-4.503792 1.350184,0 1.488566,0.32928 1.495538,3.558646 0.0072,3.314357 0.284958,4.873457 0.955756,5.363956 0.54506,0.398558 2.832418,0.449695 3.525412,0.07882 0.783098,-0.419101 1.068769,-1.744126 1.068769,-4.957252 0,-3.526096 0.185188,-4.044166 1.445618,-4.044166 1.69311,0 1.729382,0.145043 1.729382,6.915459 0,3.68782 -0.10787,6.285468 -0.273893,6.595684 -0.555607,1.038161 -2.901107,0.436753 -2.901107,-0.743872 0,-0.354073 -0.09829,-0.334568 -0.595312,0.118128 -0.327422,0.298223 -0.855376,0.676164 -1.173231,0.83987 -0.846402,0.435924 -2.990922,0.352258 -4.024803,-0.157023 z"
         id="path3" /></g></g></svg>
