<?xml version="1.0" encoding="UTF-8" standalone="no"?>
<!-- Created with Inkscape (http://www.inkscape.org/) -->

<svg
   width="230"
   height="51"
   viewBox="0 0 60.85416 13.493749"
   version="1.1"
   id="svg1"
   xml:space="preserve"
   inkscape:version="1.3.2 (091e20e, 2023-11-25)"
   sodipodi:docname="kk.svg"
   xmlns:inkscape="http://www.inkscape.org/namespaces/inkscape"
   xmlns:sodipodi="http://sodipodi.sourceforge.net/DTD/sodipodi-0.dtd"
   xmlns="http://www.w3.org/2000/svg"
   xmlns:svg="http://www.w3.org/2000/svg"><sodipodi:namedview
     id="namedview1"
     pagecolor="#ffffff"
     bordercolor="#000000"
     borderopacity="0.25"
     inkscape:showpageshadow="2"
     inkscape:pageopacity="0.0"
     inkscape:pagecheckerboard="0"
     inkscape:deskcolor="#d1d1d1"
     inkscape:document-units="px"
     inkscape:zoom="3.2152452"
     inkscape:cx="116.78736"
     inkscape:cy="103.25807"
     inkscape:window-width="1920"
     inkscape:window-height="1016"
     inkscape:window-x="0"
     inkscape:window-y="27"
     inkscape:window-maximized="1"
     inkscape:current-layer="layer1"
     inkscape:clip-to-page="true" /><defs
     id="defs1" /><g
     inkscape:label="Layer 1"
     inkscape:groupmode="layer"
     id="layer1"><path
       style="font-variation-settings:'wght' 700;fill:#00dcfa;fill-opacity:1;stroke-width:0.0536547"
       d="M 6.1876651,12.408874 5.9152612,12.117737 V 9.6090913 7.1004533 L 3.536613,6.1931999 1.1579745,5.285956 0.97586119,4.9430313 0.79374999,4.6001074 0.91296419,4.3366793 C 1.0241318,4.0910371 1.0561084,4.0643893 1.3864185,3.9420648 L 1.7406554,3.8108854 4.2083078,4.7551315 c 1.3572069,0.5193299 2.4993073,0.944246 2.5379995,0.944246 0.03864,0 1.1835429,-0.4251569 2.544053,-0.9447905 l 2.4737047,-0.9448038 0.352752,0.1345302 c 0.322774,0.1230893 0.362534,0.1558904 0.467965,0.3861143 L 12.7,4.5820387 12.522323,4.9339984 12.344626,5.285957 9.9655354,6.1929823 7.5864561,7.1000069 V 9.6124863 12.124983 L 7.3106357,12.412487 C 7.0453732,12.689007 7.0237945,12.7 6.747426,12.7 6.4697317,12.7 6.4508668,12.6904 6.1876347,12.408875 Z"
       id="path4-2" /><path
       style="font-variation-settings:'wght' 700;fill:#00dcfa;fill-opacity:1;stroke-width:0.0536547"
       d="M 6.2286059,2.6943963 V 1.122616 L 6.398345,0.95963251 c 0.230352,-0.2211767 0.4746786,-0.2211767 0.7050512,0 L 7.273125,1.122616 V 2.6943963 4.2661866 H 6.7508656 6.2286059 Z"
       id="path5-2" /><path
       style="font-variation-settings:'wght' 700;fill:#00dcfa;fill-opacity:1;stroke-width:0.0536547"
       d="M 1.8326851,10.1716 C 1.6154273,10.117369 1.4741679,9.8889113 1.5107571,9.6509063 1.5275288,9.5417673 1.579481,9.4191335 1.6262002,9.3783881 1.7577379,9.2636415 4.1179636,7.6286852 4.1520762,7.6286852 c 0.043293,0 0.5619935,0.7044438 0.5619935,0.7631289 0,0.075518 -2.5549498,1.8285199 -2.6542016,1.8211309 -0.048182,-0.0044 -0.1504184,-0.02226 -0.2271785,-0.04136 z"
       id="path6-8" /><path
       style="font-variation-settings:'wght' 700;fill:#00dcfa;fill-opacity:1;stroke-width:0.0536547"
       d="M 10.095161,9.3628708 C 9.4211796,8.8898961 8.8358623,8.4829064 8.7944355,8.4584418 8.7348692,8.4231885 8.7781701,8.3323672 9.0014784,8.0231595 9.1567455,7.8082218 9.2998399,7.6315339 9.3194398,7.6305292 c 0.019574,-0.00104 0.6247766,0.4078201 1.3448182,0.9084989 l 1.309159,0.9103425 -10e-4,0.2334647 c -0.0021,0.311629 -0.12813,0.4629237 -0.420835,0.5060497 -0.227948,0.0335 -0.242521,0.02532 -1.45567,-0.8260142 z"
       id="path7-9" /><path
       style="fill:#00dcfa;fill-opacity:1;stroke-width:0.999997"
       d="M 28.803867,10.003898 C 28.243518,9.9111819 27.510672,9.5216234 27.185363,9.1435628 26.841833,8.7443258 26.831791,8.3042686 27.157746,7.933184 c 0.295749,-0.3366978 0.477645,-0.3357391 0.811124,0.00427 0.389657,0.3972931 0.895098,0.5910565 1.547586,0.5932763 0.307465,0.00105 0.662224,-0.035683 0.788353,-0.081621 C 30.584176,8.3473609 30.71113,7.9675617 30.525284,7.7895306 30.455039,7.7222365 29.890502,7.5297675 29.270759,7.3618197 27.709624,6.9387581 27.133021,6.5243032 27.017243,5.7420206 26.880517,4.8181881 27.254814,4.0982233 28.071556,3.7140373 c 0.462986,-0.2177826 0.619499,-0.2459532 1.337801,-0.2407875 0.96429,0.00694 1.713593,0.2434686 2.075124,0.6550583 0.275595,0.3137529 0.282346,0.416066 0.05555,0.8419272 -0.306904,0.5762958 -0.392023,0.6000477 -1.028984,0.287137 -0.471821,-0.2317853 -0.658788,-0.2747897 -1.194558,-0.2747616 -0.684702,3.61e-5 -1.036953,0.1451785 -1.036953,0.4272672 0,0.2493309 0.166969,0.3276149 1.282338,0.601231 1.133799,0.2781372 1.633672,0.484864 1.944644,0.8042253 0.894701,0.9188397 0.453198,2.551082 -0.811343,2.9995457 -0.583735,0.2070191 -1.331116,0.2817121 -1.891306,0.1890181 z m 25.844077,-8.5e-4 C 54.037329,9.902262 53.470142,9.6165187 53.098499,9.2224526 52.661415,8.7589953 52.618587,8.5358106 52.879597,8.0816876 c 0.284214,-0.4944968 0.490555,-0.5111068 1.009047,-0.081226 0.527317,0.4371982 0.924677,0.5602925 1.663252,0.5152411 0.480951,-0.029338 0.621974,-0.073092 0.759339,-0.2355966 0.09278,-0.1097626 0.168695,-0.2267682 0.168695,-0.2600124 0,-0.2175868 -0.334949,-0.3824923 -1.256849,-0.6187864 C 53.982014,7.0832066 53.631632,6.9211885 53.203869,6.4676159 52.70742,5.9412138 52.637265,5.0400676 53.042977,4.4009801 c 0.590229,-0.9297417 2.293811,-1.2359933 3.644762,-0.655216 0.564179,0.2425416 0.786435,0.4639371 0.786435,0.7833888 0,0.2630019 -0.316016,0.8511658 -0.492103,0.9158954 -0.07605,0.027953 -0.392997,-0.064619 -0.704341,-0.2057157 -0.917177,-0.4156521 -2.147833,-0.3326515 -2.147833,0.1448587 0,0.2846799 0.261841,0.4094073 1.431972,0.6821164 1.664497,0.3879251 2.183462,0.8489753 2.183462,1.9397872 0,1.2075757 -0.727179,1.8851173 -2.169261,2.0211861 -0.273417,0.0258 -0.691074,0.01489 -0.928126,-0.02423 z M 21.500593,9.9466757 C 21.054818,9.865937 21.048664,9.8225059 21.048664,6.7576431 c 0,-2.339426 0.02362,-2.8984569 0.128254,-3.0355776 0.121408,-0.1590989 0.256921,-0.1680728 2.538043,-0.1680728 2.779626,0 2.66647,-0.03504 2.66647,0.8256883 0,0.7787692 0.0075,0.7761369 -2.198974,0.7761369 h -1.868391 v 0.4241954 0.4241954 l 1.543888,0.030375 c 1.742285,0.03428 1.800389,0.056937 1.800389,0.7020063 0,0.6744729 0.01062,0.6704402 -1.765704,0.6704402 h -1.578573 v 0.4762187 0.4762186 h 1.891647 c 2.209737,0 2.175718,-0.012017 2.175718,0.7689021 0,0.8605705 0.08619,0.8308741 -2.45562,0.8460759 -1.20959,0.00723 -2.300938,-0.00528 -2.425218,-0.027765 z m 13.151146,-0.00957 C 34.263634,9.8647732 34.245003,9.7421752 34.245003,7.2606025 V 4.8960594 h -0.976168 c -0.638726,0 -1.01366,-0.035917 -1.08463,-0.1039023 -0.05965,-0.057145 -0.108463,-0.3285184 -0.108463,-0.6030497 0,-0.4048765 0.03301,-0.5160757 0.174829,-0.588779 0.108162,-0.055453 1.107701,-0.089632 2.62119,-0.089632 2.325846,0 2.455267,0.00853 2.627133,0.1731705 0.220821,0.2115346 0.24174,0.7439371 0.04007,1.0197559 -0.130126,0.177969 -0.211667,0.1924361 -1.08463,0.1924361 h -0.943927 l -0.0013,2.2728603 c -9.56e-4,1.6302954 -0.03289,2.3323506 -0.112982,2.4832872 -0.116686,0.219916 -0.436299,0.3422276 -0.744352,0.2848523 z m 4.067364,-0.00205 c -0.409358,-0.080806 -0.406736,-0.060319 -0.406736,-3.1774059 0,-3.2915951 -0.01805,-3.1949921 0.597246,-3.1949921 0.519072,0 0.616871,0.1774511 0.668157,1.2123305 l 0.04519,0.9119477 1.561261,-1.094075 c 0.876085,-0.6139275 1.62836,-1.0816965 1.714154,-1.0658689 0.40245,0.074246 0.717075,0.977892 0.453002,1.3010857 -0.06215,0.076052 -0.682414,0.5181023 -1.378385,0.9823336 -0.695971,0.4642314 -1.279634,0.8549308 -1.297029,0.8682211 -0.01739,0.01329 0.5317,0.4227393 1.220209,0.9098864 1.418123,1.0033754 1.563369,1.1432704 1.566177,1.5084773 0.0024,0.316042 -0.396097,0.9075989 -0.611445,0.9075989 -0.08526,0 -0.833704,-0.5260066 -1.663222,-1.1689014 -0.829519,-0.6428947 -1.531097,-1.1688997 -1.559066,-1.1688997 -0.02797,0 -0.05146,0.3993742 -0.05218,0.8874979 -7.87e-4,0.530523 -0.04624,0.9721372 -0.112983,1.0979249 -0.117193,0.2208728 -0.438929,0.3431257 -0.744352,0.282839 z M 15.101272,9.8140804 C 15.021131,9.7373091 14.99281,8.9352034 14.99281,6.7423033 V 3.7744456 l 0.220553,-0.1384354 c 0.187543,-0.1177151 0.488545,-0.1342135 2.011086,-0.1102272 1.692654,0.026668 1.809105,0.039269 2.130279,0.2305599 0.761303,0.4534297 1.092551,1.5929862 0.683654,2.3519101 l -0.209928,0.3896331 0.259975,0.462751 c 0.580132,1.0326278 0.175645,2.4292418 -0.821983,2.8381491 -0.389122,0.1594927 -4.000803,0.1727699 -4.165174,0.015311 z m 3.870603,-1.627784 c 0.106366,-0.1615151 0.111476,-0.6101767 0.0087,-0.765483 C 18.934435,7.3510894 18.639659,7.2819215 18.242542,7.247643 17.604432,7.192562 17.57866,7.181488 17.505177,6.9308116 c -0.104904,-0.357861 -0.0083,-0.8027578 0.197138,-0.9080918 0.09402,-0.0482 0.368848,-0.087637 0.610735,-0.087637 0.460841,0 0.65672,-0.1066231 0.65672,-0.357473 0,-0.359191 -0.222307,-0.4217936 -1.497824,-0.4217936 H 16.258213 V 6.7640295 8.3722424 L 17.57228,8.344209 c 1.046874,-0.022335 1.331458,-0.054441 1.399596,-0.1579117 z m 25.399526,1.5642251 c -0.05906,-0.105705 -0.09356,-1.21738 -0.09356,-3.0139317 0,-3.2235969 -0.009,-3.1786637 0.632701,-3.1786637 0.641646,0 0.632702,-0.044932 0.632702,3.1786637 0,1.7965517 -0.03451,2.908227 -0.09356,3.0139317 -0.07308,0.1308095 -0.19112,0.1674777 -0.539136,0.1674777 -0.348015,0 -0.466054,-0.036666 -0.539135,-0.1674777 z m 2.154552,0.024292 C 46.426264,9.6597473 46.401903,9.0631108 46.401903,6.736683 V 3.8417378 l 0.223606,-0.1734506 c 0.208745,-0.161924 0.331881,-0.1714849 1.85291,-0.1438738 1.483878,0.026937 1.667113,0.047417 2.052892,0.2294524 1.420656,0.6703576 2.081879,2.6984914 1.426692,4.3760034 -0.263803,0.6754271 -0.679482,1.1715302 -1.262471,1.5067279 l -0.489425,0.2814011 h -1.778053 c -1.543669,0 -1.794403,-0.018874 -1.902101,-0.1431847 z m 3.72285,-1.6105036 C 50.912018,7.7355529 51.131141,6.5993853 50.693774,5.8571076 50.346183,5.2671915 50.041601,5.1558152 48.775943,5.1558152 h -1.063445 v 1.6105207 1.6105207 l 1.152422,-0.031455 c 0.903046,-0.024648 1.202506,-0.063835 1.383883,-0.1810917 z"
       id="path1" /></g></svg>
