<?xml version="1.0" encoding="UTF-8" standalone="no"?>
<!-- Created with Inkscape (http://www.inkscape.org/) -->

<svg
   width="230"
   height="51"
   viewBox="0 0 60.85416 13.493749"
   version="1.1"
   id="svg1"
   xml:space="preserve"
   inkscape:version="1.3.2 (091e20e, 2023-11-25)"
   sodipodi:docname="kk.svg"
   xmlns:inkscape="http://www.inkscape.org/namespaces/inkscape"
   xmlns:sodipodi="http://sodipodi.sourceforge.net/DTD/sodipodi-0.dtd"
   xmlns="http://www.w3.org/2000/svg"
   xmlns:svg="http://www.w3.org/2000/svg"><sodipodi:namedview
     id="namedview1"
     pagecolor="#ffffff"
     bordercolor="#000000"
     borderopacity="0.25"
     inkscape:showpageshadow="2"
     inkscape:pageopacity="0.0"
     inkscape:pagecheckerboard="0"
     inkscape:deskcolor="#d1d1d1"
     inkscape:document-units="px"
     inkscape:zoom="3.2152452"
     inkscape:cx="87.551643"
     inkscape:cy="103.25807"
     inkscape:window-width="1920"
     inkscape:window-height="1016"
     inkscape:window-x="0"
     inkscape:window-y="27"
     inkscape:window-maximized="1"
     inkscape:current-layer="layer1"
     inkscape:clip-to-page="true" /><defs
     id="defs1" /><g
     inkscape:label="Layer 1"
     inkscape:groupmode="layer"
     id="layer1"><path
       style="font-variation-settings:'wght' 700;fill:#00dcfa;fill-opacity:1;stroke-width:0.0536547"
       d="M 6.1876651,12.408874 5.9152612,12.117737 V 9.6090913 7.1004533 L 3.536613,6.1931999 1.1579745,5.285956 0.97586119,4.9430313 0.79374999,4.6001074 0.91296419,4.3366793 C 1.0241318,4.0910371 1.0561084,4.0643893 1.3864185,3.9420648 L 1.7406554,3.8108854 4.2083078,4.7551315 c 1.3572069,0.5193299 2.4993073,0.944246 2.5379995,0.944246 0.03864,0 1.1835429,-0.4251569 2.544053,-0.9447905 l 2.4737047,-0.9448038 0.352752,0.1345302 c 0.322774,0.1230893 0.362534,0.1558904 0.467965,0.3861143 L 12.7,4.5820387 12.522323,4.9339984 12.344626,5.285957 9.9655354,6.1929823 7.5864561,7.1000069 V 9.6124863 12.124983 L 7.3106357,12.412487 C 7.0453732,12.689007 7.0237945,12.7 6.747426,12.7 6.4697317,12.7 6.4508668,12.6904 6.1876347,12.408875 Z"
       id="path4-2" /><path
       style="font-variation-settings:'wght' 700;fill:#00dcfa;fill-opacity:1;stroke-width:0.0536547"
       d="M 6.2286059,2.6943963 V 1.122616 L 6.398345,0.95963251 c 0.230352,-0.2211767 0.4746786,-0.2211767 0.7050512,0 L 7.273125,1.122616 V 2.6943963 4.2661866 H 6.7508656 6.2286059 Z"
       id="path5-2" /><path
       style="font-variation-settings:'wght' 700;fill:#00dcfa;fill-opacity:1;stroke-width:0.0536547"
       d="M 1.8326851,10.1716 C 1.6154273,10.117369 1.4741679,9.8889113 1.5107571,9.6509063 1.5275288,9.5417673 1.579481,9.4191335 1.6262002,9.3783881 1.7577379,9.2636415 4.1179636,7.6286852 4.1520762,7.6286852 c 0.043293,0 0.5619935,0.7044438 0.5619935,0.7631289 0,0.075518 -2.5549498,1.8285199 -2.6542016,1.8211309 -0.048182,-0.0044 -0.1504184,-0.02226 -0.2271785,-0.04136 z"
       id="path6-8" /><path
       style="font-variation-settings:'wght' 700;fill:#00dcfa;fill-opacity:1;stroke-width:0.0536547"
       d="M 10.095161,9.3628708 C 9.4211796,8.8898961 8.8358623,8.4829064 8.7944355,8.4584418 8.7348692,8.4231885 8.7781701,8.3323672 9.0014784,8.0231595 9.1567455,7.8082218 9.2998399,7.6315339 9.3194398,7.6305292 c 0.019574,-0.00104 0.6247766,0.4078201 1.3448182,0.9084989 l 1.309159,0.9103425 -10e-4,0.2334647 c -0.0021,0.311629 -0.12813,0.4629237 -0.420835,0.5060497 -0.227948,0.0335 -0.242521,0.02532 -1.45567,-0.8260142 z"
       id="path7-9" /><path
       style="stroke-width:3.29571;fill:#00dcfa;fill-opacity:1"
       d="m 144.8468,1.4980746 c -0.88263,-0.271088 -1.70168,-0.81076097 -2.61189,-1.72097097 -1.24599,-1.24598703 -1.31742,-1.39031303 -1.18323,-2.39076903 0.12936,-0.964478 1.03293,-2.335635 1.53913,-2.335635 0.11131,0 0.74821,0.472419 1.41535,1.049819 1.40548,1.216436 2.92019,1.708043 4.4714,1.451219 1.59191,-0.263563 2.02072,-0.562677 2.02072,-1.409544 0,-0.870677 -0.31159,-1.047215 -3.32685,-1.884876 -4.36091,-1.21149 -5.93356,-2.710723 -5.93356,-5.6565486 0,-2.572114 1.46138,-4.586605 3.78234,-5.2139 0.61185,-0.165366 2.01337,-0.248981 3.1145,-0.185811 2.21853,0.127274 3.90246,0.859381 4.81453,2.093169 0.50815,0.687393 0.50815,0.706522 2.9e-4,1.852083 -0.80766,1.821785 -1.02347,1.898054 -2.84433,1.005173 -2.98112,-1.461825 -6.66098,-0.701936 -5.21605,1.07711 0.2946,0.362713 1.27126,0.766861 2.83101,1.1714786 3.10652,0.805873 3.81529,1.099515 4.71997,1.955481 1.12863,1.06785 1.49835,1.978364 1.49193,3.674195 -0.0107,2.822071 -1.3977,4.71693703 -4.02351,5.496719 -1.67775,0.498237 -3.37816,0.488699 -5.06175,-0.02839 z m 32.98379,-3.007792 c -2.19519,-1.891771 -4.06377,-3.439583 -4.1524,-3.439583 -0.0886,0 -0.16116,1.223664 -0.16116,2.719253 0,3.11648203 -0.31663,3.89533 -1.5836,3.89533 -1.59046,0 -1.5914,-0.0054 -1.5914,-9.226398 0,-6.1765506 0.0839,-8.4787486 0.3175,-8.7123506 0.47644,-0.476441 1.92207,-0.383433 2.40936,0.155012 0.31869,0.352148 0.44708,1.128977 0.50402,3.049581 l 0.0764,2.577069 4.09565,-3.183673 c 2.2526,-1.751019 4.21713,-3.143917 4.36562,-3.095329 0.54156,0.177209 1.46061,1.86754 1.46061,2.686389 0,0.999241 -0.23619,1.236223 -3.96875,3.982023 -1.52797,1.1240266 -2.87852,2.1352736 -3.00122,2.2472156 -0.12271,0.111942 0.94886,1.131499 2.38125,2.265683 3.94177,3.121138 4.58872,3.788503 4.58872,4.73351403 0,0.773222 -1.11667,2.78584697 -1.54568,2.78584697 -0.11202,0 -1.99974,-1.54781197 -4.19493,-3.439583 z m 33.45038,3.014718 c -1.49415,-0.459343 -3.49918,-2.25836897 -3.78466,-3.395793 -0.13945,-0.555617 -0.0512,-1.04053 0.30911,-1.697512 0.85594,-1.560938 1.22833,-1.614619 2.57698,-0.371477 1.36632,1.259431 2.90678,1.776221 4.50557,1.511519 1.60343,-0.26547 2.02073,-0.560804 2.02073,-1.430131 0,-0.84361 -0.39542,-1.047058 -4.1012,-2.11015 -3.62106,-1.038786 -5.15922,-2.655733 -5.15922,-5.4234666 0,-2.558633 1.46649,-4.575206 3.78234,-5.201121 1.76065,-0.475856 4.9044,-0.189421 6.26606,0.570917 1.68077,0.938518 2.18598,1.730192 1.85737,2.910478 -0.14482,0.520129 -0.53137,1.196829 -0.85901,1.503777 l -0.59572,0.558088 -1.58076,-0.776173 c -2.48232,-1.218846 -5.4307,-1.000703 -5.4307,0.401805 0,0.868311 0.7219,1.294625 3.175,1.8749866 2.04567,0.483969 3.77925,1.160606 4.53057,1.768333 2.19951,1.779127 2.05109,6.258992 -0.27213,8.21385303 -1.6655,1.40142197 -4.73038,1.86370097 -7.24033,1.09206697 z m 20.10509,0.06205 c -2.24711,-0.84083497 -3.7024,-2.36984797 -4.56529,-4.796559 -0.70567,-1.984543 -0.91214,-11.7338806 -0.26928,-12.7150116 0.36414,-0.555749 0.61641,-0.662002 1.41342,-0.595321 1.48823,0.124511 1.63535,0.660682 1.63988,5.976644 0.004,4.9632396 0.17023,5.7593556 1.44633,6.9368136 0.63786,0.588556 0.9459,0.661458 2.79485,0.661458 1.91533,0 2.1385,-0.05798 2.85116,-0.740757 1.16151,-1.112796 1.37823,-2.262416 1.37823,-7.3109786 0,-2.630979 0.11554,-4.766656 0.27389,-5.062532 0.3164,-0.591195 2.05589,-0.721995 2.58361,-0.194273 0.22649,0.226488 0.3175,1.887047 0.3175,5.792963 0,4.7057146 -0.0735,5.7134086 -0.52279,7.1680446 -0.60921,1.972402 -1.95116,3.68598503 -3.50897,4.480719 -1.3853,0.706729 -4.44964,0.916245 -5.83254,0.398785 z M 110.87693,1.2650096 110.28162,0.84153163 V -7.4272704 c 0,-6.3092146 0.0804,-8.3787776 0.33933,-8.7328636 0.3067,-0.419436 0.82193,-0.456104 5.35781,-0.381299 5.76599,0.09509 5.97154,0.165699 7.13182,2.449817 0.80372,1.582228 0.85825,3.266714 0.15582,4.8136446 l -0.49735,1.095282 0.67796,1.369896 c 1.34667,2.72114 0.62531,6.16049303 -1.60149,7.63564303 -1.04693,0.69353797 -1.18076,0.71196397 -5.72264,0.78789197 -3.92525,0.06562 -4.74349,0.01169 -5.24595,-0.345732 z m 9.67052,-4.679722 c 0.42054,-0.420541 0.40652,-1.925077 -0.0212,-2.280093 -0.18631,-0.154626 -0.98607,-0.318032 -1.77725,-0.363126 -1.23914,-0.07063 -1.49289,-0.179241 -1.83091,-0.783704 -0.29957,-0.535712 -0.33292,-0.942558 -0.14097,-1.719791 0.24986,-1.011742 0.26097,-1.018926 1.78499,-1.154513 1.92499,-0.17126 2.59848,-0.9853836 1.62254,-1.9613316 -0.33151,-0.331502 -1.05547,-0.415773 -3.57188,-0.415773 h -3.1561 v 4.4979156 4.497916 h 3.38667 c 2.28129,0 3.49029,-0.103628 3.70416,-0.3175 z m 5.75646,4.491962 c -0.61608,-0.87958097 -0.61608,-16.2005916 0,-17.0801726 0.40568,-0.579184 0.50513,-0.588038 6.60528,-0.588038 7.05244,0 6.74118,-0.106811 6.74118,2.313286 0,2.179152 0.0273,2.168127 -5.55625,2.247414 l -4.89479,0.06951 -0.0806,1.256771 -0.0806,1.2567706 h 4.12209 4.12208 l 0.25804,0.678682 c 0.37575,0.988314 0.31641,2.030649 -0.15385,2.702029 -0.39437,0.563053 -0.57987,0.588038 -4.36562,0.588038 h -3.95375 v 1.174263 1.174262 l 4.91662,0.08251 c 5.65996,0.09498 5.66671,0.09793 5.66671,2.47332003 0,2.24795097 0.0266,2.23939597 -6.95114,2.23939597 -5.88317,0 -5.99033,-0.0099 -6.39531,-0.588038 z m 33.98396,0.05887 c -0.5015,-0.50150197 -0.52917,-0.88194797 -0.52917,-7.276045 v -6.7468736 h -2.46062 c -1.56105,0 -2.5767,-0.116076 -2.77813,-0.3175 -0.4397,-0.439706 -0.40589,-2.719348 0.0459,-3.0943 0.25605,-0.2125 2.34191,-0.280691 7.06091,-0.230835 l 6.69751,0.07076 0.2227,0.859896 c 0.12248,0.472942 0.12282,1.246848 7.5e-4,1.719791 l -0.22194,0.859896 -2.62989,0.132292 -2.6299,0.132291 -0.0683,6.8791656 c -0.0605,6.09003303 -0.11939,6.917106 -0.51359,7.209896 -0.65646,0.487574 -1.59502,0.402772 -2.19623,-0.198438 z m 25.83788,0.04531 c -0.3877,-0.42839897 -0.43789,-1.42694497 -0.43789,-8.712351 0,-7.1276726 0.0556,-8.2841186 0.41578,-8.6442696 0.49085,-0.49085 1.98886,-0.551141 2.44172,-0.09827 0.23361,0.233602 0.3175,2.5358 0.3175,8.7123506 0,7.27890403 -0.0553,8.45012003 -0.41577,8.810624 -0.56139,0.561391 -1.78413,0.52553 -2.32134,-0.06808 z m 5.53414,0.06808 c -0.36051,-0.36050397 -0.41578,-1.53171997 -0.41578,-8.810624 0,-6.1765506 0.0839,-8.4787486 0.3175,-8.7123506 0.22127,-0.221263 1.6395,-0.3175 4.67897,-0.3175 5.0136,0 5.92274,0.26248 7.56842,2.185079 1.57945,1.84523 2.10825,3.584972 2.11038,6.9430456 0.002,2.645537 -0.0672,3.060538 -0.7564,4.559911 -0.90292,1.96422603 -2.81375,3.86940403 -4.29277,4.280068 -0.56493,0.156857 -2.77481,0.285858 -4.91084,0.286669 -3.17925,0.0012 -3.95912,-0.07394 -4.29948,-0.414298 z m 9.77343,-5.222603 c 1.53016,-1.530157 1.82827,-4.057999 0.73161,-6.2037076 -0.77568,-1.517693 -1.82052,-1.915349 -5.03384,-1.915836 l -2.71198,-4.11e-4 v 4.4979156 4.497916 h 3.06917 3.06917 z m 41.94401,5.05932 c -0.36831,-0.39533697 -0.53947,-0.93757997 -0.53947,-1.70906897 0,-1.06244103 0.24548,-1.43521403 4.10524,-6.23396403 l 4.10523,-5.1039506 -3.63002,-0.07396 c -4.38839,-0.08942 -4.58045,-0.191711 -4.58045,-2.439578 0,-2.39559 -0.0394,-2.38125 6.54763,-2.38125 3.06896,0 5.77266,0.07396 6.00822,0.164354 0.23557,0.09039 0.60249,0.501201 0.81539,0.912902 0.82894,1.602988 0.64226,1.976054 -3.71397,7.4219126 l -4.10107,5.126872 3.82347,0.132291 c 2.43939,0.0844 3.93748,0.246377 4.13841,0.447447 0.54269,0.543065 0.62974,2.89438603 0.13511,3.64929103 l -0.43622,0.66576197 h -6.06901 c -5.90259,0 -6.08381,-0.01588 -6.60849,-0.579057 z m -21.38863,-0.003 c -0.47875,-0.47874897 -0.40614,-3.260229 0.0983,-3.764643 0.50628,-0.506287 1.43379,-0.537124 2.07405,-0.06895 0.58232,0.425798 0.84283,2.40700103 0.45017,3.42349303 -0.2387,0.61793597 -0.4336,0.72760497 -1.29303,0.72760497 -0.55658,0 -1.15484,-0.142875 -1.32947,-0.3175 z"
       id="path6"
       transform="matrix(0.30307029,0,0,0.30377709,-18.759765,9.0139144)" /></g></svg>
