<?xml version="1.0" encoding="UTF-8" standalone="no"?>
<!-- Created with Inkscape (http://www.inkscape.org/) -->

<svg
   width="200"
   height="51"
   viewBox="0 0 52.916662 13.49375"
   version="1.1"
   id="svg1"
   xml:space="preserve"
   inkscape:version="1.3.2 (091e20e, 2023-11-25)"
   sodipodi:docname="logo4.svg"
   xmlns:inkscape="http://www.inkscape.org/namespaces/inkscape"
   xmlns:sodipodi="http://sodipodi.sourceforge.net/DTD/sodipodi-0.dtd"
   xmlns="http://www.w3.org/2000/svg"
   xmlns:svg="http://www.w3.org/2000/svg"><sodipodi:namedview
     id="namedview1"
     pagecolor="#ffffff"
     bordercolor="#000000"
     borderopacity="0.25"
     inkscape:showpageshadow="2"
     inkscape:pageopacity="0.0"
     inkscape:pagecheckerboard="0"
     inkscape:deskcolor="#d1d1d1"
     inkscape:document-units="px"
     inkscape:zoom="4.1121711"
     inkscape:cx="98.123348"
     inkscape:cy="40.48956"
     inkscape:window-width="1920"
     inkscape:window-height="1043"
     inkscape:window-x="1920"
     inkscape:window-y="0"
     inkscape:window-maximized="1"
     inkscape:current-layer="layer1" /><defs
     id="defs1" /><g
     inkscape:label="Layer 1"
     inkscape:groupmode="layer"
     id="layer1"
     transform="translate(-92.674695,-81.746867)"><text
       xml:space="preserve"
       style="font-style:normal;font-variant:normal;font-weight:normal;font-stretch:normal;font-size:6.19717px;font-family:Fredoka;-inkscape-font-specification:'Fredoka, @wght=700,wdth=105.9';font-variant-ligatures:normal;font-variant-caps:normal;font-variant-numeric:normal;font-variant-east-asian:normal;fill:#00dcfa;fill-opacity:1;stroke-width:0.422531;font-variation-settings:'wdth' 105.9, 'wght' 700"
       x="119.27285"
       y="81.653404"
       id="text3"
       transform="scale(0.89756216,1.114129)"><tspan
         sodipodi:role="line"
         id="tspan3"
         style="font-style:normal;font-variant:normal;font-weight:normal;font-stretch:normal;font-size:6.19716961px;font-family:Fredoka;-inkscape-font-specification:'Fredoka, @wght=700,wdth=105.9';font-variant-ligatures:normal;font-variant-caps:normal;font-variant-numeric:normal;font-variant-east-asian:normal;fill:#00dcfa;fill-opacity:1;stroke-width:0.422531;font-variation-settings:'wght' 700, 'wdth' 105.9"
         x="119.27285"
         y="81.653404">BEST-KIDS</tspan></text><path
       style="font-variation-settings:'wght' 700;fill:#00dcfa;fill-opacity:1;stroke-width:0.0511511"
       d="m 100.02997,93.581074 -0.262954,-0.27411 v -2.361939 -2.36193 L 97.470894,87.728899 95.17478,86.874712 94.998985,86.551842 94.823192,86.228973 94.93827,85.98095 c 0.107311,-0.231276 0.138178,-0.256366 0.457028,-0.371537 l 0.341947,-0.123507 2.382039,0.889025 c 1.31012,0.488959 2.412596,0.889025 2.449946,0.889025 0.0373,0 1.14248,-0.400293 2.45579,-0.889538 l 2.38788,-0.88955 0.34051,0.126662 c 0.31158,0.115891 0.34996,0.146774 0.45173,0.363534 l 0.11122,0.236897 -0.17151,0.331376 -0.17153,0.331376 -2.29655,0.853981 -2.29654,0.853981 v 2.365546 2.365556 l -0.26625,0.270699 c -0.25606,0.260342 -0.27689,0.270698 -0.54367,0.270698 -0.26806,0 -0.28627,-0.0092 -0.54037,-0.274099 z"
       id="path4" /><path
       style="font-variation-settings:'wght' 700;fill:#00dcfa;fill-opacity:1;stroke-width:0.0511511"
       d="m 100.06949,84.43471 v -1.47986 l 0.16385,-0.153452 c 0.22236,-0.208242 0.45821,-0.208242 0.68059,0 l 0.16384,0.153452 v 1.47986 1.47987 h -0.50414 -0.50414 z"
       id="path5" /><path
       style="font-variation-settings:'wght' 700;fill:#00dcfa;fill-opacity:1;stroke-width:0.0511511"
       d="m 95.826082,91.474637 c -0.20972,-0.05106 -0.346079,-0.266157 -0.310759,-0.490243 0.01619,-0.102756 0.06634,-0.218218 0.111438,-0.256581 0.126974,-0.108036 2.405314,-1.647377 2.438243,-1.647377 0.04179,0 0.542495,0.663246 0.542495,0.718499 0,0.0711 -2.466307,1.721586 -2.562116,1.71463 -0.04651,-0.0041 -0.1452,-0.02096 -0.219296,-0.03894 z"
       id="path6" /><path
       style="font-variation-settings:'wght' 700;fill:#00dcfa;fill-opacity:1;stroke-width:0.0511511"
       d="m 103.8019,90.713203 c -0.6506,-0.445314 -1.21561,-0.828502 -1.2556,-0.851536 -0.0575,-0.03319 -0.0157,-0.118702 0.19986,-0.409827 0.14988,-0.202367 0.28801,-0.368723 0.30693,-0.369668 0.0189,-0.001 0.6031,0.38397 1.29816,0.855368 l 1.26374,0.857105 -0.001,0.219811 c -0.002,0.293404 -0.12368,0.435852 -0.40623,0.476455 -0.22004,0.03154 -0.23411,0.02384 -1.40517,-0.777708 z"
       id="path7" /></g></svg>
