<?xml version="1.0" encoding="UTF-8" standalone="no"?>
<!-- Created with Inkscape (http://www.inkscape.org/) -->

<svg
   width="32"
   height="32"
   viewBox="0 0 8.4666665 8.4666666"
   version="1.1"
   id="svg1"
   xml:space="preserve"
   inkscape:version="1.3.2 (091e20e, 2023-11-25)"
   sodipodi:docname="best-logo.svg"
   xmlns:inkscape="http://www.inkscape.org/namespaces/inkscape"
   xmlns:sodipodi="http://sodipodi.sourceforge.net/DTD/sodipodi-0.dtd"
   xmlns="http://www.w3.org/2000/svg"
   xmlns:svg="http://www.w3.org/2000/svg"><sodipodi:namedview
     id="namedview1"
     pagecolor="#ffffff"
     bordercolor="#000000"
     borderopacity="0.25"
     inkscape:showpageshadow="2"
     inkscape:pageopacity="0.0"
     inkscape:pagecheckerboard="0"
     inkscape:deskcolor="#d1d1d1"
     inkscape:document-units="px"
     inkscape:zoom="16.448685"
     inkscape:cx="22.159827"
     inkscape:cy="14.864411"
     inkscape:window-width="1920"
     inkscape:window-height="1043"
     inkscape:window-x="1920"
     inkscape:window-y="0"
     inkscape:window-maximized="1"
     inkscape:current-layer="layer1" /><defs
     id="defs1" /><g
     inkscape:label="Layer 1"
     inkscape:groupmode="layer"
     id="layer1"><path
       style="font-variation-settings:'wght' 700;fill:#00dcfa;fill-opacity:1;stroke-width:0.0364246"
       d="M 3.8557313,8.0977461 3.6717912,7.8990403 V 6.1868441 4.4746548 L 2.0656213,3.8554387 0.45945685,3.2362294 0.33648576,3.0021772 0.21351605,2.7681263 0.29401474,2.5883316 C 0.36908027,2.4206767 0.39067223,2.402489 0.61371233,2.3190001 L 0.85290914,2.2294706 2.5191792,2.8739339 c 0.9164477,0.3544515 1.6876453,0.6444636 1.7137721,0.6444636 0.026091,0 0.7991811,-0.2901761 1.7178602,-0.6448355 L 7.6211674,2.2287173 7.859359,2.3205343 c 0.2179546,0.084007 0.244802,0.1063956 0.3159915,0.2635298 l 0.0778,0.1717292 L 8.1331773,2.9960107 8.0131901,3.2362294 6.4067206,3.8552896 4.8002583,4.4743499 V 6.1891603 7.9039777 L 4.6140126,8.1002103 C 4.4348951,8.288935 4.420324,8.2964427 4.2337078,8.2964427 c -0.1875119,0 -0.20025,-0.00671 -0.3779966,-0.1986978 z"
       id="path4" /><path
       style="font-variation-settings:'wght' 700;fill:#00dcfa;fill-opacity:1;stroke-width:0.0364246"
       d="M 3.8833761,1.4674448 V 0.39467782 L 3.9979919,0.28344173 c 0.1555441,-0.15095717 0.3205246,-0.15095717 0.4760824,0 L 4.5886825,0.39467782 V 1.4674448 2.5402188 H 4.2360291 3.8833761 Z"
       id="path5" /><path
       style="font-variation-settings:'wght' 700;fill:#00dcfa;fill-opacity:1;stroke-width:0.0364246"
       d="M 0.91505188,6.5707664 C 0.76834974,6.5337531 0.67296469,6.3778261 0.69767153,6.2153838 0.70899728,6.1408953 0.74407736,6.057195 0.77562388,6.0293853 0.86444397,5.9510729 2.4581754,4.835184 2.4812095,4.835184 c 0.029233,0 0.379483,0.4807942 0.379483,0.5208469 0,0.051546 -1.7252168,1.2479964 -1.7922366,1.2429541 C 1.0359215,6.595975 0.96688648,6.583794 0.91505526,6.570762 Z"
       id="path6" /><path
       style="font-variation-settings:'wght' 700;fill:#00dcfa;fill-opacity:1;stroke-width:0.0364246"
       d="M 6.4942499,6.0187943 C 6.039146,5.6959808 5.6439135,5.4182037 5.6159399,5.4015061 5.5757173,5.3774428 5.6049564,5.3154538 5.7557448,5.1044184 5.8605884,4.9577204 5.9572119,4.837127 5.9704468,4.8364419 5.9836681,4.8357165 6.3923237,5.1147864 6.8785281,5.4565072 L 7.7625323,6.0778329 7.7618328,6.2371758 C 7.7604357,6.449868 7.6753165,6.5531296 7.4776691,6.5825636 7.3237479,6.6054252 7.3139058,6.5998455 6.4947326,6.0187943 Z"
       id="path7" /></g></svg>
